<?xml version="1.0"?>
<svg width="588.30859" height="959.73712" xmlns="http://www.w3.org/2000/svg" xmlns:svg="http://www.w3.org/2000/svg" xmlns:xlink="http://www.w3.org/1999/xlink">
 <defs>
  <linearGradient id="linearGradient10637">
   <stop offset="0" id="stop10639" stop-color="#5c3566"/>
   <stop offset="1" id="stop10641" stop-opacity="0" stop-color="#5c3566"/>
  </linearGradient>
  <linearGradient id="linearGradient10629">
   <stop offset="0" id="stop10631" stop-color="#5c3566"/>
   <stop offset="1" id="stop10633" stop-color="#0a0000"/>
  </linearGradient>
  <linearGradient id="linearGradient10619">
   <stop offset="0" id="stop10621" stop-color="#2e3436"/>
   <stop offset="1" id="stop10623" stop-color="#25292b"/>
  </linearGradient>
  <linearGradient id="linearGradient10603">
   <stop offset="0" id="stop10605" stop-color="#555753"/>
   <stop offset="1" id="stop10607" stop-color="#3c3d3b"/>
  </linearGradient>
  <linearGradient id="linearGradient10475">
   <stop offset="0" id="stop10477" stop-color="#555753"/>
   <stop offset="1" id="stop10479" stop-color="#3c3e3a"/>
  </linearGradient>
  <linearGradient id="linearGradient10467">
   <stop offset="0" id="stop10469" stop-color="#babdb6"/>
   <stop offset="1" id="stop10471" stop-color="#aaaea6"/>
  </linearGradient>
  <linearGradient id="linearGradient10457">
   <stop offset="0" id="stop10459" stop-color="#ef2929"/>
   <stop offset="1" id="stop10461" stop-color="#cc0000"/>
  </linearGradient>
  <filter id="filter10691" color-interpolation-filters="sRGB">
   <feGaussianBlur stdDeviation="7.385714" id="feGaussianBlur10693"/>
  </filter>
  <linearGradient xlink:href="#linearGradient10467" id="linearGradient10795" x1="0.508532" y1="0.018162" x2="0.539593" y2="1"/>
  <radialGradient xlink:href="#linearGradient10457" id="radialGradient10797" gradientUnits="userSpaceOnUse" cx="-656.09406" cy="216.96603" fx="-656.09406" fy="216.96603" r="7.576144"/>
  <radialGradient xlink:href="#linearGradient10637" id="radialGradient10799" gradientUnits="userSpaceOnUse" cx="-334.37186" cy="658.71167" fx="-334.37186" fy="658.71167" r="30.809652"/>
  <radialGradient xlink:href="#linearGradient10629" id="radialGradient10801" gradientUnits="userSpaceOnUse" cx="-339.41125" cy="648.30115" fx="-339.41125" fy="648.30115" r="34.345184"/>
  <radialGradient xlink:href="#linearGradient10619" id="radialGradient10803" gradientUnits="userSpaceOnUse" gradientTransform="matrix(0.20860517,-1.0987082e-8,1.1744941e-8,0.22299417,-491.14706,494.69775)" cx="-620.60938" cy="636.67188" fx="-620.60938" fy="636.67188" r="70.203125"/>
  <radialGradient xlink:href="#linearGradient10603" id="radialGradient10805" gradientUnits="userSpaceOnUse" gradientTransform="matrix(1,0,0,0.13333332,0,653.15462)" cx="568.97723" cy="753.63995" fx="568.97723" fy="753.63995" r="46.227619"/>
  <radialGradient xlink:href="#linearGradient10475" id="radialGradient10807" gradientUnits="userSpaceOnUse" gradientTransform="matrix(1,0,0,0.23762374,0,372.96365)" cx="-738.21222" cy="489.21204" fx="-738.21222" fy="489.21204" r="36.07143"/>
 </defs>
 <metadata id="metadata9621">image/svg+xml</metadata>
 <g>
  <title>Layer 1</title>
  <g id="layer3" display="inline">
   <g id="g10695">
    <path id="path10689" d="m39.92976,17.725691l512.004993,0c11.31604,0 20.426025,9.109999 20.426025,20.425898l0,826.71682c-7.648987,18.312012 -15.577026,27.143005 -27.5,36.71698c-20.296997,16.299011 -45.971985,25.567017 -71.140015,32.212036c-29.10498,7.68396 -59.966003,5.482971 -89.931976,8.213989l-343.859028,0c-11.315981,0 -20.425972,-9.109985 -20.425972,-20.426025l0,-883.433918c0,-11.315901 9.109991,-20.4258 20.425972,-20.4258l0,0l0,0.000021z" filter="url(#filter10691)" fill="#000000"/>
    <path d="m39.92976,17.725691l512.004993,0c11.31604,0 20.426025,9.109999 20.426025,20.425898l0,826.71682c-7.648987,18.312012 -15.577026,27.143005 -27.5,36.71698c-20.296997,16.299011 -45.971985,25.567017 -71.140015,32.212036c-29.10498,7.68396 -59.966003,5.482971 -89.931976,8.213989l-343.859028,0c-11.315981,0 -20.425972,-9.109985 -20.425972,-20.426025l0,-883.433918c0,-11.315901 9.109991,-20.4258 20.425972,-20.4258l0,0l0,0.000021z" id="path10396" fill="#2e3436"/>
    <path id="rect9640" d="m31.929758,0.72572l512.004995,0c11.31604,0 20.426025,9.10997 20.426025,20.42587l0,826.716818c-7.648987,18.312012 -15.577026,27.143005 -27.5,36.71698c-20.296997,16.299011 -45.972015,25.567017 -71.140015,32.212036c-29.10498,7.68396 -59.966003,5.482971 -89.931976,8.213989l-343.85903,0c-11.315979,0 -20.42597,-9.109985 -20.42597,-20.426025l0,-883.433918c0,-11.3159 9.109991,-20.42582 20.42597,-20.42582l0,0.00005l0,0.00002z" fill="url(#linearGradient10795)"/>
    <path id="rect10154" d="m75.499031,77.162643c-11.231758,0 -20.281254,11.702942 -20.281254,26.278313l0,420.128502c0,14.575378 9.049496,26.318848 20.281254,26.318848l69.749992,0l306.84375,0l13.8125,0c37.20694,0 67.15625,-38.865021 67.15625,-87.148254l0,-28.224854c0.304993,-1.606201 0.5,-3.296753 0.5,-5.028564l0,-331.56086c0,-11.50367 -7.135315,-20.763107 -16,-20.763107l-65.46875,0l-369.062492,0l-7.53125,0l0,-0.000023z" fill="#888a85"/>
    <rect ry="9.16616" y="118.740302" x="110.378931" height="388.78177" width="379.247647" id="rect10161" fill="#73d216"/>
    <path d="m89.305939,215.72496c0,4.184189 -3.391975,7.576141 -7.57618,7.576141c-4.184143,0 -7.576111,-3.391953 -7.576111,-7.576141c0,-4.184189 3.391968,-7.576141 7.576111,-7.576141c4.184204,0 7.57618,3.391953 7.57618,7.576141z" id="path10163" fill="url(#radialGradient10797)"/>
    <path id="path10445" d="m446.151703,684.363098c0,18.968262 -15.376862,34.345154 -34.345184,34.345154c-18.968323,0 -34.345215,-15.376892 -34.345215,-34.345154c0,-18.968323 15.376862,-34.345154 34.345215,-34.345154c18.968292,0 34.345184,15.376831 34.345184,34.345154z" fill="#482a50"/>
    <path d="m442.151703,682.363098c0,18.968262 -15.376862,34.345154 -34.345184,34.345154c-18.968323,0 -34.345215,-15.376892 -34.345215,-34.345154c0,-18.968323 15.376862,-34.345154 34.345215,-34.345154c18.968292,0 34.345184,15.376831 34.345184,34.345154z" id="path10165" fill="url(#radialGradient10799)"/>
    <path d="m540.095886,641.936707c0,18.968262 -15.376831,34.345154 -34.345184,34.345154c-18.968323,0 -34.345215,-15.376892 -34.345215,-34.345154c0,-18.968323 15.376862,-34.345215 34.345215,-34.345215c18.968292,0 34.345184,15.376892 34.345184,34.345215z" id="path10447" fill="#482a50"/>
    <use height="1052.3622" width="744.09448" id="use10167" xlink:href="#path10165" y="-6.87085" x="93.944183" fill="url(#radialGradient10801)"/>
    <path d="m107.811531,654.086243c-1.720329,0 -3.09375,1.404663 -3.09375,3.125l0,41.21875l-41.218754,0c-1.720329,0 -3.09375,1.373413 -3.09375,3.09375l0,45.5625c0,1.720337 1.373421,3.09375 3.09375,3.09375l41.218754,0l0,41.21875c0,1.720337 1.373421,3.09375 3.09375,3.09375l45.562492,0c1.720337,0 3.125,-1.373413 3.125,-3.09375l0,-41.21875l41.21875,0c1.720337,0 3.09375,-1.373413 3.09375,-3.09375l0,-45.5625c0,-1.720337 -1.373413,-3.09375 -3.09375,-3.09375l-41.21875,0l0,-41.21875c0,-1.720337 -1.404663,-3.125 -3.125,-3.125l-45.562492,0z" id="path10435" fill="#555753"/>
    <path id="rect10169" d="m112.700417,655.641846c-1.720329,0 -3.09375,1.404663 -3.09375,3.125l0,41.21875l-41.21875,0c-1.720329,0 -3.09375,1.373413 -3.09375,3.09375l0,45.5625c0,1.720337 1.373421,3.09375 3.09375,3.09375l41.21875,0l0,41.21875c0,1.720337 1.373421,3.09375 3.09375,3.09375l45.562492,0c1.720337,0 3.125,-1.373413 3.125,-3.09375l0,-41.21875l41.21875,0c1.720337,0 3.09375,-1.373413 3.09375,-3.09375l0,-45.5625c0,-1.720337 -1.373413,-3.09375 -3.09375,-3.09375l-41.21875,0l0,-41.21875c0,-1.720337 -1.404663,-3.125 -3.125,-3.125l-45.562492,0z" fill="url(#radialGradient10803)"/>
    <rect transform="matrix(0.50773289,0.86151455,-0.86151455,0.50773289,0,0) " ry="6.163682" y="102.978921" x="900.849903" height="12.327364" width="92.455238" id="rect10174" fill="url(#radialGradient10805)"/>
    <use height="1052.3622" width="744.09448" id="use10176" xlink:href="#rect10174" y="-77.276672" x="139.906128" fill="#555753"/>
    <use height="1052.3622" width="744.09448" id="use10178" xlink:href="#use10176" y="15.657365" x="-27.274118" fill="#555753"/>
    <use height="1052.3622" width="744.09448" id="use10180" xlink:href="#use10178" y="15.657364" x="-27.779196" fill="#555753"/>
    <use height="1052.3622" width="744.09448" id="use10182" xlink:href="#use10180" y="15.152288" x="-28.284271" fill="#555753"/>
    <use height="1052.3622" width="744.09448" id="use10184" xlink:href="#use10182" y="14.142136" x="-28.789349" fill="#555753"/>
    <rect transform="matrix(0.88998879,-0.4559824,0.4559824,0.88998879,0,0) " ry="8.571428" y="836.242191" x="-76.943071" height="17.142857" width="72.14286" id="rect10187" fill="url(#radialGradient10807)"/>
    <use height="1052.3622" width="744.09448" id="use10189" xlink:href="#rect10187" y="-0.357143" x="-96.428574"/>
    <use x="-96.428574" y="-0.357143" xlink:href="#rect10187" id="use10191" width="744.09448" height="1052.3622" fill="#babdb6"/>
    <path id="path10193" d="m11.503488,49.439999l552.857169,0" stroke-miterlimit="4" stroke-width="6" stroke="#555753" fill="none"/>
    <path id="path10195" d="m530.07489,3.75161l0,45.439281" stroke-miterlimit="4" stroke-width="6" stroke="#555753" fill="none"/>
    <path id="path10197" d="m58.64637,4.44l0,44.910712" stroke-miterlimit="4" stroke-width="6" stroke="#555753" fill="none"/>
    <path id="path10199" d="m79.360672,104.440002l123.571396,0" stroke-miterlimit="4" stroke-width="3" stroke="#204a87" fill="none"/>
    <path d="m79.360672,93.725723l123.571396,0" id="path10201" stroke-miterlimit="4" stroke-width="3" stroke="#5c3566" fill="none"/>
    <path d="m457.932068,104.440002l52.142853,0" id="path10203" stroke-miterlimit="4" stroke-width="3" stroke="#204a87" fill="none"/>
    <path id="path10205" d="m457.932068,93.725723l52.142853,0" stroke-miterlimit="4" stroke-width="3" stroke="#5c3566" fill="none"/>
    <g id="text10215" fill="#204a87">
     <path id="path10256" d="m427.771759,739.41748l9.38266,-4.831177c1.564117,-0.805359 2.925446,-1.110046 4.084564,-0.915344c1.160034,0.194092 1.977142,0.752808 2.452271,1.675598c0.399048,0.774963 0.442169,1.592773 0.130096,2.454956c-0.208588,0.574341 -0.641083,1.166138 -1.29718,1.775757c1.28186,-0.373901 2.339508,-0.427246 3.172424,-0.158752c0.833954,0.268066 1.46463,0.819641 1.893768,1.653076c0.34967,0.679077 0.469513,1.390625 0.357666,2.133545c-0.112457,0.744202 -0.426178,1.447632 -0.941925,2.113464c-0.319275,0.412964 -0.879761,0.882568 -1.682953,1.408264c-1.067078,0.701111 -1.784546,1.145325 -2.153564,1.335327l-8.652588,4.455261l-6.745239,-13.099976zm7.702118,2.534668l2.179474,-1.122192c0.782501,-0.402893 1.270721,-0.791748 1.464447,-1.166565c0.193817,-0.374695 0.185486,-0.767578 -0.026398,-1.179077c-0.196259,-0.381165 -0.502991,-0.60022 -0.918976,-0.656921c-0.41629,-0.057495 -1.004669,0.109985 -1.764465,0.501221l-2.213104,1.139526l1.279022,2.484009zm2.650208,5.146973l2.556396,-1.316284c0.862671,-0.444214 1.407288,-0.881409 1.634338,-1.310608c0.227081,-0.42926 0.233032,-0.852844 0.018311,-1.269897c-0.199524,-0.387451 -0.534698,-0.608154 -1.006256,-0.663452c-0.472229,-0.054077 -1.146057,0.144348 -2.024567,0.59668l-2.544464,1.310181l1.366241,2.653381z" fill="#204a87"/>
    </g>
    <g id="text10219" fill="#204a87">
     <path id="path10259" d="m534.528931,702.290588l-5.70929,2.939819l0.327698,2.566467l-5.122681,2.637695l-0.648682,-16.238098l5.466003,-2.814453l12.84198,9.959656l-5.245361,2.700867l-1.909668,-1.751953zm-2.509033,-2.291443l-4.217407,-3.786011l0.643005,5.626526l3.574402,-1.840515z" fill="#204a87"/>
    </g>
    <g id="text10223" fill="#204a87">
     <path id="path10232" d="m227.00943,815.648254l1.713776,-0.903748c0.236557,0.283081 0.555359,0.45575 0.956238,0.51825c0.40097,0.0625 0.950119,0.005737 1.647522,-0.17041c0.697342,-0.175964 1.443909,-0.453735 2.239624,-0.833191c0.706573,-0.336975 1.307281,-0.682861 1.802292,-1.03772c0.494888,-0.354736 0.83429,-0.679443 1.018036,-0.973999c0.183746,-0.294556 0.22821,-0.541504 0.133133,-0.740845c-0.096497,-0.202332 -0.308014,-0.318237 -0.634674,-0.347778c-0.32666,-0.029541 -0.807236,0.044006 -1.441864,0.220764c-0.407715,0.111633 -1.288376,0.403015 -2.642044,0.874084c-1.353714,0.471008 -2.318436,0.766418 -2.89418,0.886292c-0.745239,0.157532 -1.338776,0.194946 -1.780609,0.112427c-0.441711,-0.082581 -0.733215,-0.271912 -0.87442,-0.568054c-0.155243,-0.3255 -0.099762,-0.72522 0.166351,-1.199402c0.266083,-0.474182 0.74939,-0.968201 1.449738,-1.482056c0.700272,-0.513977 1.52153,-0.995605 2.463593,-1.444885c1.037598,-0.494812 1.98938,-0.854248 2.855286,-1.078369c0.865982,-0.223999 1.583435,-0.288269 2.152603,-0.192566c0.569031,0.095642 0.959717,0.325012 1.171921,0.687927l-1.746658,0.908508c-0.289841,-0.361877 -0.759689,-0.515625 -1.409592,-0.461243c-0.649902,0.054443 -1.512756,0.338318 -2.588562,0.851318c-1.120331,0.534302 -1.891602,1.018127 -2.313858,1.45166c-0.422318,0.433533 -0.569839,0.783569 -0.442581,1.050415c0.110474,0.231628 0.382782,0.335632 0.816925,0.312012c0.427765,-0.020447 1.431793,-0.311218 3.012131,-0.872375c1.580246,-0.561096 2.678452,-0.916626 3.294495,-1.066528c0.897263,-0.215576 1.603424,-0.283325 2.11824,-0.203125c0.514801,0.080078 0.854736,0.293091 1.01973,0.639038c0.163559,0.343018 0.104477,0.767944 -0.177338,1.27478c-0.281845,0.506775 -0.781937,1.035034 -1.500366,1.584656c-0.718491,0.5495 -1.577454,1.062561 -2.57692,1.539246c-1.266724,0.604065 -2.368729,1.02533 -3.30603,1.263611c-0.937286,0.238281 -1.73085,0.302734 -2.380676,0.19342c-0.649872,-0.109314 -1.090256,-0.373352 -1.321259,-0.792114z" fill="#204a87"/>
     <path id="path10234" d="m241.727966,811.17157l-3.074692,-6.447144l10.121567,-4.827087l0.362854,0.760803l-8.26886,3.943481l0.941559,1.974243l7.743454,-3.692871l0.360779,0.75647l-7.743454,3.692932l1.046692,2.194763l8.593292,-4.098267l0.362869,0.760864l-10.44606,4.981812z" fill="#204a87"/>
     <path id="path10236" d="m254.675842,804.996582l-3.074677,-6.447144l1.852661,-0.883545l2.711823,5.68634l6.893616,-3.287598l0.362854,0.760803l-8.746277,4.171143z" fill="#204a87"/>
     <path id="path10238" d="m265.67514,799.750916l-3.074707,-6.447083l10.121521,-4.827026l0.362823,0.760803l-8.268768,3.94342l0.941559,1.974243l7.743439,-3.692871l0.360779,0.75647l-7.743439,3.692932l1.046692,2.194763l8.593292,-4.098267l0.362854,0.760864l-10.446045,4.98175z" fill="#204a87"/>
     <path id="path10240" d="m287.609253,786.515564l1.9552,-0.667908c-0.054199,0.885925 -0.498047,1.753357 -1.331421,2.602478c-0.833527,0.84906 -1.979156,1.621216 -3.43689,2.316406c-1.508698,0.719482 -2.80304,1.163208 -3.883331,1.331116c-1.0802,0.167969 -1.994965,0.101257 -2.74411,-0.19989c-0.749207,-0.301331 -1.27063,-0.759705 -1.56424,-1.375305c-0.32019,-0.671387 -0.320953,-1.389893 -0.00238,-2.155334c0.318665,-0.765564 0.930084,-1.523071 1.834473,-2.272888c0.904297,-0.749756 1.973907,-1.419067 3.208801,-2.007996c1.400482,-0.667908 2.656433,-1.065369 3.767853,-1.192383c1.111389,-0.127014 1.996887,0.017517 2.656219,0.433472l-1.72937,1.067688c-0.54834,-0.31427 -1.182312,-0.431152 -1.901794,-0.350708c-0.719513,0.080505 -1.54718,0.343872 -2.48291,0.7901c-1.075775,0.513062 -1.918304,1.060608 -2.527557,1.642578c-0.609283,0.582153 -0.964874,1.143005 -1.066833,1.682861c-0.102051,0.539856 -0.051636,1.022278 0.151123,1.447388c0.261475,0.548279 0.663177,0.944092 1.205078,1.187622c0.542023,0.24353 1.227264,0.291809 2.055847,0.14502c0.82843,-0.14679 1.669189,-0.423706 2.522217,-0.830505c1.037537,-0.494812 1.850372,-1.051514 2.438293,-1.670105c0.587799,-0.618652 0.87973,-1.259888 0.875732,-1.923706z" fill="#204a87"/>
     <path id="path10242" d="m296.393463,785.101135l-2.711853,-5.68634l-4.612549,2.199768l-0.362823,-0.760803l11.095123,-5.291382l0.362854,0.760803l-4.631165,2.208679l2.711853,5.686279l-1.85144,0.882996z" fill="#204a87"/>
    </g>
    <g id="text10227" fill="#204a87">
     <path id="path10245" d="m331.055237,809.587341l1.713776,-0.903748c0.236542,0.283142 0.555267,0.455872 0.956238,0.518311c0.40094,0.062439 0.950104,0.005676 1.647522,-0.170349c0.697327,-0.176086 1.443909,-0.453796 2.239624,-0.833313c0.706573,-0.336975 1.307312,-0.682861 1.802277,-1.037659c0.494904,-0.354797 0.83429,-0.679443 1.018066,-0.973999c0.183777,-0.294617 0.228149,-0.541504 0.133057,-0.740845c-0.096466,-0.202271 -0.308014,-0.318298 -0.634674,-0.347778c-0.326599,-0.029541 -0.80722,0.044006 -1.441772,0.220703c-0.407745,0.111633 -1.288422,0.403076 -2.64209,0.874084c-1.353699,0.471008 -2.31842,0.766479 -2.894196,0.886292c-0.745209,0.157532 -1.338745,0.195007 -1.780518,0.112366c-0.441772,-0.082458 -0.733276,-0.271851 -0.874481,-0.567932c-0.155212,-0.325439 -0.099762,-0.72522 0.166321,-1.199402c0.266113,-0.474121 0.74942,-0.968201 1.449707,-1.482178c0.700317,-0.513855 1.521576,-0.995483 2.463654,-1.444763c1.037628,-0.494873 1.98938,-0.854309 2.855316,-1.078308c0.865906,-0.22406 1.583435,-0.288269 2.152557,-0.192688c0.569092,0.095642 0.959747,0.325012 1.171906,0.687988l-1.746674,0.908508c-0.289764,-0.361877 -0.759644,-0.515686 -1.409546,-0.461243c-0.649872,0.054504 -1.512756,0.338135 -2.588593,0.851257c-1.120331,0.534302 -1.891632,1.018188 -2.313843,1.45166c-0.422211,0.433472 -0.569763,0.783691 -0.442566,1.050415c0.110474,0.231628 0.382751,0.335632 0.816956,0.312134c0.427734,-0.020508 1.431763,-0.311279 3.012085,-0.872498c1.580231,-0.561035 2.678406,-0.916565 3.294556,-1.066467c0.897247,-0.215637 1.603363,-0.283264 2.118195,-0.203186c0.514832,0.080078 0.854736,0.293213 1.019714,0.639099c0.163574,0.342957 0.104462,0.767944 -0.177277,1.27478c-0.281799,0.506836 -0.781952,1.034973 -1.500427,1.584595c-0.718536,0.549561 -1.577484,1.062622 -2.576874,1.539246c-1.266754,0.604126 -2.368774,1.02533 -3.306061,1.263611c-0.937286,0.238281 -1.730865,0.302795 -2.380676,0.19342c-0.649841,-0.109253 -1.090271,-0.373352 -1.321259,-0.792114z" fill="#204a87"/>
     <path id="path10247" d="m349.296783,803.430054l-2.711823,-5.686218l-4.611206,2.199097l-0.362854,-0.760803l11.095123,-5.291382l0.362823,0.760864l-4.631134,2.208618l2.711792,5.686218l-1.852722,0.883606z" fill="#204a87"/>
     <path id="path10249" d="m356.153076,800.160217l2.3013,-9.010864l1.995056,-0.951477l8.804443,3.714478l-2.110779,1.006653l-2.564575,-1.173889l-5.852112,2.790955l-0.606232,2.686035l-1.967102,0.93811zm2.776733,-4.57373l4.745575,-2.263184l-2.313263,-1.088501c-0.704132,-0.32959 -1.247681,-0.617004 -1.629669,-0.863464c0.018982,0.498474 -0.036652,1.028809 -0.168304,1.591553l-0.634338,2.623596z" fill="#204a87"/>
     <path id="path10251" d="m370.780701,793.184204l-3.074646,-6.447083l6.207275,-2.960266c1.247559,-0.594971 2.223633,-0.989075 2.927887,-1.1828c0.704254,-0.193787 1.320587,-0.236511 1.848572,-0.128967c0.528259,0.108215 0.876984,0.3396 1.046143,0.694336c0.218201,0.45752 0.081421,0.995667 -0.41272,1.616272c-0.492859,0.619995 -1.391144,1.293518 -2.693878,2.019348c0.542511,-0.125671 0.96579,-0.196655 1.270294,-0.211914c0.650299,-0.029663 1.298828,0.012207 1.946533,0.12439l3.271881,0.592896l-2.33017,1.111267l-2.492493,-0.457825c-0.725647,-0.128357 -1.312592,-0.212341 -1.760284,-0.250793c-0.447662,-0.03833 -0.829895,-0.031982 -1.14566,0.017944c-0.315826,0.049805 -0.625244,0.126648 -0.926392,0.23114c-0.220062,0.079468 -0.569519,0.233337 -1.046967,0.46106l-2.14801,1.024414l1.365387,2.862976l-1.852753,0.883606zm0.13504,-4.485352l3.982117,-1.899109c0.845886,-0.403442 1.489288,-0.759094 1.928192,-1.067627c0.438904,-0.308655 0.740662,-0.610474 0.903351,-0.906067c0.164276,-0.295593 0.195953,-0.547546 0.096649,-0.755798c-0.145508,-0.305115 -0.504395,-0.441406 -1.079651,-0.408447c-0.573639,0.032959 -1.380066,0.29657 -2.417511,0.791321l-4.430328,2.112854l1.017181,2.132874z" fill="#204a87"/>
     <path id="path10253" d="m388.446167,784.759399l-2.711823,-5.686218l-4.612518,2.199707l-0.362823,-0.760803l11.095062,-5.291321l0.362823,0.760803l-4.631134,2.208618l2.711792,5.686279l-1.851379,0.882935z" fill="#204a87"/>
    </g>
    <g id="text10261" transform="translate(745.4400024414062,-1.493610143661499) scale(0.9846585392951965,1.0155805349349976) " fill="#eeeeec">
     <path id="path10266" d="m-537.670532,104.269997l0,-9.8424l3.390015,0c0.765991,0 1.349976,0.047005 1.752014,0.141006c0.563965,0.129799 1.045959,0.364799 1.44397,0.704895c0.519043,0.438698 0.907043,0.999199 1.165039,1.681801c0.256958,0.682503 0.385986,1.462402 0.385986,2.339699c0,0.747002 -0.088013,1.410004 -0.262024,1.987c-0.174988,0.578003 -0.39801,1.055 -0.670959,1.434006c-0.27301,0.377998 -0.572021,0.674995 -0.897034,0.891998c-0.323975,0.217995 -0.716003,0.381996 -1.174988,0.493996c-0.458008,0.112 -0.984985,0.167999 -1.580994,0.167999l-3.551025,0zm1.302002,-1.161995l2.10199,0c0.649048,0 1.15802,-0.060005 1.527039,-0.181c0.368958,-0.121002 0.664001,-0.291 0.882996,-0.510002c0.30896,-0.308998 0.549011,-0.723999 0.721985,-1.246002c0.171997,-0.520996 0.257996,-1.153 0.257996,-1.896194c0,-1.029404 -0.169006,-1.820503 -0.507019,-2.373199c-0.337952,-0.552803 -0.747986,-0.923103 -1.231995,-1.111107c-0.348999,-0.1343 -0.91095,-0.201393 -1.684998,-0.201393l-2.067993,0l0,7.518898z"/>
     <path id="path10268" d="m-528.130615,99.476227c0,-1.633636 0.438599,-2.912567 1.315857,-3.836815c0.877258,-0.924232 2.009583,-1.386345 3.397095,-1.386353c0.908569,0.000008 1.7276,0.217079 2.457153,0.651207c0.729553,0.434166 1.285645,1.039505 1.668335,1.816032c0.382629,0.776543 0.573975,1.657143 0.574036,2.6418c-0.000061,0.998093 -0.201477,1.890991 -0.604248,2.678719c-0.402832,0.787735 -0.973511,1.384125 -1.711975,1.789169c-0.738525,0.405052 -1.535156,0.607582 -2.390015,0.607582c-0.926514,0 -1.754517,-0.223785 -2.48407,-0.671356c-0.729492,-0.447571 -1.282288,-1.05851 -1.658203,-1.832809c-0.375977,-0.7743 -0.563965,-1.593353 -0.563965,-2.457176zm1.342712,0.020142c0,1.186073 0.318909,2.120384 0.956665,2.802925c0.637817,0.682549 1.437866,1.023819 2.400146,1.023819c0.980164,0 1.786926,-0.344635 2.420227,-1.03389c0.633301,-0.689262 0.949951,-1.667206 0.949951,-2.933846c0,-0.801147 -0.135376,-1.500481 -0.406128,-2.098c-0.270813,-0.597496 -0.666931,-1.06073 -1.188354,-1.389709c-0.521423,-0.328957 -1.106567,-0.493439 -1.755554,-0.493446c-0.921997,0.000008 -1.715332,0.316666 -2.380005,0.949982c-0.664612,0.633316 -0.996948,1.690704 -0.996948,3.172165z"/>
     <path id="path10270" d="m-514.542542,104.269997l0,-8.680893l-3.242981,0l0,-1.161507l7.802002,0l0,1.161507l-3.255981,0l0,8.680893l-1.30304,0z"/>
     <path id="path10272" d="m-504.86853,104.269997l0,-9.8424l1.960999,0l2.32901,6.968407c0.214996,0.648994 0.372009,1.134995 0.470001,1.456993c0.112,-0.357994 0.286987,-0.883995 0.523987,-1.577995l2.357025,-6.847404l1.751984,0l0,9.8424l-1.255981,0l0,-8.237793l-2.860016,8.237793l-1.174988,0l-2.846008,-8.378799l0,8.378799l-1.256012,0z"/>
     <path id="path10274" d="m-494.441528,104.269997l3.779022,-9.8424l1.403992,0l4.027985,9.8424l-1.483978,0l-1.14801,-2.980995l-4.11499,0l-1.081024,2.980995l-1.382996,0zm2.83902,-4.042l3.336975,0l-1.026978,-2.725594c-0.313019,-0.828003 -0.546021,-1.508301 -0.697998,-2.040901c-0.126007,0.631096 -0.302002,1.257698 -0.531006,1.879799l-1.080994,2.886696z"/>
     <path id="path10276" d="m-481.672516,104.269997l0,-8.680893l-3.243011,0l0,-1.161507l7.800995,0l0,1.161507l-3.255981,0l0,8.680893l-1.302002,0z"/>
     <path id="path10278" d="m-475.751526,104.269997l0,-9.8424l4.364014,0c0.876984,0 1.544006,0.088402 2.001007,0.265205c0.455994,0.176796 0.820984,0.488998 1.093994,0.936501c0.27298,0.447594 0.410004,0.9422 0.410004,1.483696c0,0.698303 -0.226013,1.286804 -0.678009,1.765701c-0.453003,0.478897 -1.151001,0.783302 -2.095001,0.913101c0.345001,0.165596 0.605988,0.329201 0.785004,0.490196c0.380981,0.348999 0.740997,0.785004 1.080994,1.309006l1.712006,2.678993l-1.638,0l-1.302002,-2.047997c-0.381012,-0.591003 -0.694,-1.042999 -0.940002,-1.356003c-0.246002,-0.312996 -0.46701,-0.532997 -0.661011,-0.657997c-0.194977,-0.125 -0.392975,-0.212601 -0.595001,-0.261803c-0.146973,-0.031395 -0.388977,-0.046997 -0.724976,-0.046997l-1.51001,0l0,4.370796l-1.303009,0zm1.303009,-5.498695l2.799011,0c0.595978,0 1.060974,-0.061501 1.396973,-0.184601c0.335022,-0.1231 0.591003,-0.32 0.765015,-0.590797c0.174988,-0.270805 0.261993,-0.565102 0.261993,-0.882904c0,-0.465401 -0.169006,-0.848099 -0.506989,-1.148003c-0.338013,-0.299797 -0.872009,-0.449799 -1.601013,-0.449799l-3.11499,0l0,3.256104z"/>
     <path id="path10280" d="m-465.613525,104.269997l0,-9.8424l1.302002,0l0,9.8424l-1.302002,0z"/>
     <path id="path10282" d="m-463.022522,104.269997l3.807007,-5.129494l-3.356995,-4.712906l1.550995,0l1.786011,2.5243c0.370972,0.523705 0.634979,0.926506 0.791992,1.208504c0.218994,-0.358101 0.479004,-0.731804 0.778992,-1.121201l1.980011,-2.611603l1.416992,0l-3.458008,4.639107l3.726013,5.203293l-1.610992,0l-2.47702,-3.510994c-0.139008,-0.202003 -0.281982,-0.421005 -0.429993,-0.658005c-0.218994,0.358002 -0.376007,0.604004 -0.470001,0.737999l-2.470001,3.431l-1.565002,0z"/>
     <path id="path10284" d="m-447.305511,104.269997l-2.612,-9.8424l1.335999,0l1.496979,6.451401c0.161011,0.676003 0.300018,1.348 0.417023,2.014c0.25,-1.050995 0.39798,-1.657997 0.442993,-1.819l1.872986,-6.6464l1.571014,0l1.410004,4.981506c0.352997,1.234894 0.608002,2.396896 0.764984,3.483894c0.125,-0.621994 0.289001,-1.335999 0.490021,-2.140999l1.543976,-6.324402l1.309021,0l-2.699005,9.8424l-1.255005,0l-2.074005,-7.499298c-0.174988,-0.626602 -0.277985,-1.011597 -0.30899,-1.1548c-0.102997,0.452103 -0.200012,0.837006 -0.289001,1.1548l-2.088013,7.499298l-1.328979,0z"/>
     <path id="path10286" d="m-435.83252,104.269997l0,-9.8424l1.303009,0l0,9.8424l-1.303009,0z"/>
     <path id="path10288" d="m-429.736511,104.269997l0,-8.680893l-3.242004,0l0,-1.161507l7.800995,0l0,1.161507l-3.256012,0l0,8.680893l-1.302979,0z"/>
     <path id="path10290" d="m-423.794525,104.269997l0,-9.8424l1.302002,0l0,4.041603l5.115997,0l0,-4.041603l1.302002,0l0,9.8424l-1.302002,0l0,-4.639397l-5.115997,0l0,4.639397l-1.302002,0z"/>
     <path id="path10292" d="m-410.528717,101.107628l1.228577,-0.107414c0.058197,0.492325 0.193573,0.896263 0.406189,1.2118c0.212585,0.315544 0.542664,0.570656 0.990234,0.76535c0.447571,0.194695 0.951111,0.292046 1.510559,0.292046c0.496796,0 0.935425,-0.073799 1.315857,-0.22155c0.380432,-0.147697 0.663544,-0.350227 0.849274,-0.607582c0.18573,-0.257355 0.278625,-0.538208 0.278625,-0.84256c0,-0.308815 -0.089508,-0.578476 -0.268555,-0.80899c-0.179047,-0.230484 -0.474426,-0.424065 -0.886169,-0.580719c-0.264099,-0.102936 -0.848175,-0.262947 -1.752258,-0.480026c-0.904114,-0.217064 -1.537415,-0.421829 -1.899963,-0.614288c-0.46994,-0.246162 -0.82016,-0.551636 -1.050659,-0.916405c-0.230499,-0.364769 -0.345764,-0.773178 -0.345764,-1.225227c0,-0.496803 0.140991,-0.961159 0.422974,-1.393074c0.281952,-0.4319 0.693726,-0.75975 1.235291,-0.983536c0.541565,-0.223778 1.143555,-0.33567 1.805969,-0.335678c0.729523,0.000008 1.372894,0.1175 1.930145,0.352455c0.55722,0.234993 0.985779,0.580742 1.285645,1.037254c0.299866,0.456528 0.460999,0.97348 0.483398,1.550835l-1.248749,0.093994c-0.067078,-0.622124 -0.294281,-1.092072 -0.681427,-1.409851c-0.387146,-0.317772 -0.958923,-0.476662 -1.715302,-0.476669c-0.78775,0.000008 -1.361755,0.144348 -1.722046,0.433029c-0.360321,0.288689 -0.540436,0.636681 -0.540436,1.043961c0,0.353592 0.127533,0.644508 0.38266,0.872772c0.250641,0.228264 0.905212,0.46212 1.963715,0.701569c1.058502,0.239449 1.784698,0.448685 2.178589,0.627716c0.572876,0.264069 0.995819,0.598633 1.26886,1.003685c0.27301,0.40506 0.409515,0.871658 0.409515,1.39978c0,0.523666 -0.149933,1.017105 -0.449799,1.480347c-0.299896,0.463242 -0.730682,0.823532 -1.292358,1.080887c-0.561737,0.257355 -1.193909,0.386032 -1.896606,0.386032c-0.890656,0 -1.636993,-0.129799 -2.238983,-0.389389c-0.60199,-0.25959 -1.074158,-0.650101 -1.416565,-1.171509c-0.342377,-0.521431 -0.522552,-1.111115 -0.540436,-1.769043z"/>
     <path id="path10294" d="m-398.397522,104.269997l0,-8.680893l-3.242004,0l0,-1.161507l7.800995,0l0,1.161507l-3.255981,0l0,8.680893l-1.303009,0z"/>
     <path id="path10296" d="m-392.469513,104.269997l0,-9.8424l7.117004,0l0,1.161507l-5.813995,0l0,3.014397l5.444977,0l0,1.154701l-5.444977,0l0,3.3498l6.041992,0l0,1.161995l-7.345001,0z"/>
     <path id="path10298" d="m-383.291504,104.269997l0,-9.8424l4.363983,0c0.877014,0 1.544006,0.088402 2,0.265205c0.457001,0.176796 0.821991,0.488998 1.095001,0.936501c0.27301,0.447594 0.408997,0.9422 0.408997,1.483696c0,0.698303 -0.225983,1.286804 -0.678009,1.765701c-0.451996,0.478897 -1.149994,0.783302 -2.095001,0.913101c0.345001,0.165596 0.607025,0.329201 0.786011,0.490196c0.380005,0.348999 0.740997,0.785004 1.080994,1.309006l1.712006,2.678993l-1.638,0l-1.303009,-2.047997c-0.379974,-0.591003 -0.692993,-1.042999 -0.939972,-1.356003c-0.246002,-0.312996 -0.466003,-0.532997 -0.661011,-0.657997c-0.195007,-0.125 -0.393005,-0.212601 -0.593994,-0.261803c-0.14801,-0.031395 -0.389008,-0.046997 -0.725006,-0.046997l-1.511017,0l0,4.370796l-1.301971,0zm1.301971,-5.498695l2.800018,0c0.595001,0 1.061005,-0.061501 1.395996,-0.184601c0.335999,-0.1231 0.591003,-0.32 0.765991,-0.590797c0.174011,-0.270805 0.261017,-0.565102 0.261017,-0.882904c0,-0.465401 -0.169006,-0.848099 -0.506012,-1.148003c-0.337982,-0.299797 -0.872009,-0.449799 -1.60199,-0.449799l-3.115021,0l0,3.256104z"/>
     <path id="path10300" d="m-373.348511,104.269997l0,-9.8424l7.115997,0l0,1.161507l-5.813995,0l0,3.014397l5.444977,0l0,1.154701l-5.444977,0l0,3.3498l6.041992,0l0,1.161995l-7.343994,0z"/>
     <path id="path10302" d="m-364.587616,99.476227c0,-1.633636 0.438629,-2.912567 1.315857,-3.836815c0.877228,-0.924232 2.009613,-1.386345 3.397095,-1.386353c0.908569,0.000008 1.7276,0.217079 2.457153,0.651207c0.729553,0.434166 1.285645,1.039505 1.668335,1.816032c0.38266,0.776543 0.574005,1.657143 0.574005,2.6418c0,0.998093 -0.201416,1.890991 -0.604218,2.678719c-0.402832,0.787735 -0.97348,1.384125 -1.711975,1.789169c-0.738495,0.405052 -1.535187,0.607582 -2.390015,0.607582c-0.926483,0 -1.754486,-0.223785 -2.484039,-0.671356c-0.729553,-0.447571 -1.282288,-1.05851 -1.658264,-1.832809c-0.375946,-0.7743 -0.563934,-1.593353 -0.563934,-2.457176zm1.342712,0.020142c0,1.186073 0.318909,2.120384 0.956696,2.802925c0.637787,0.682549 1.437805,1.023819 2.400085,1.023819c0.980194,0 1.786957,-0.344635 2.420258,-1.03389c0.633301,-0.689262 0.949951,-1.667206 0.949982,-2.933846c-0.000031,-0.801147 -0.135406,-1.500481 -0.406189,-2.098c-0.270782,-0.597496 -0.66687,-1.06073 -1.188293,-1.389709c-0.521423,-0.328957 -1.106628,-0.493439 -1.755615,-0.493446c-0.921997,0.000008 -1.715302,0.316666 -2.379944,0.949982c-0.664642,0.633316 -0.996979,1.690704 -0.996979,3.172165z"/>
     <path id="path10304" d="m-350.13327,101.107628l1.228577,-0.107414c0.058197,0.492325 0.193573,0.896263 0.406189,1.2118c0.212585,0.315544 0.542664,0.570656 0.990234,0.76535c0.447571,0.194695 0.951111,0.292046 1.510559,0.292046c0.496826,0 0.935425,-0.073799 1.315857,-0.22155c0.380432,-0.147697 0.663544,-0.350227 0.849274,-0.607582c0.18576,-0.257355 0.278625,-0.538208 0.278625,-0.84256c0,-0.308815 -0.089508,-0.578476 -0.268555,-0.80899c-0.179016,-0.230484 -0.474426,-0.424065 -0.886169,-0.580719c-0.264099,-0.102936 -0.848175,-0.262947 -1.752258,-0.480026c-0.904114,-0.217064 -1.537415,-0.421829 -1.899933,-0.614288c-0.469971,-0.246162 -0.82019,-0.551636 -1.05069,-0.916405c-0.230499,-0.364769 -0.345764,-0.773178 -0.345764,-1.225227c0,-0.496803 0.140991,-0.961159 0.422974,-1.393074c0.281952,-0.4319 0.693726,-0.75975 1.235291,-0.983536c0.541565,-0.223778 1.143555,-0.33567 1.805969,-0.335678c0.729523,0.000008 1.372925,0.1175 1.930145,0.352455c0.55722,0.234993 0.985779,0.580742 1.285645,1.037254c0.299866,0.456528 0.460999,0.97348 0.483398,1.550835l-1.248749,0.093994c-0.067078,-0.622124 -0.294281,-1.092072 -0.681427,-1.409851c-0.387146,-0.317772 -0.958923,-0.476662 -1.715302,-0.476669c-0.78775,0.000008 -1.361755,0.144348 -1.722046,0.433029c-0.360291,0.288689 -0.540436,0.636681 -0.540436,1.043961c0,0.353592 0.127563,0.644508 0.38266,0.872772c0.250641,0.228264 0.905212,0.46212 1.963745,0.701569c1.058502,0.239449 1.784668,0.448685 2.178558,0.627716c0.572876,0.264069 0.995819,0.598633 1.26886,1.003685c0.27301,0.40506 0.409515,0.871658 0.409515,1.39978c0,0.523666 -0.149933,1.017105 -0.449799,1.480347c-0.299896,0.463242 -0.730682,0.823532 -1.292358,1.080887c-0.561707,0.257355 -1.193909,0.386032 -1.896606,0.386032c-0.890656,0 -1.636993,-0.129799 -2.238983,-0.389389c-0.60199,-0.25959 -1.074158,-0.650101 -1.416565,-1.171509c-0.342377,-0.521431 -0.522522,-1.111115 -0.540436,-1.769043z"/>
     <path id="path10306" d="m-340.9021,99.476227c0,-1.633636 0.438629,-2.912567 1.315857,-3.836815c0.877258,-0.924232 2.009613,-1.386345 3.397095,-1.386353c0.908569,0.000008 1.7276,0.217079 2.457153,0.651207c0.729553,0.434166 1.285645,1.039505 1.668335,1.816032c0.38266,0.776543 0.574005,1.657143 0.574005,2.6418c0,0.998093 -0.201416,1.890991 -0.604218,2.678719c-0.402832,0.787735 -0.97348,1.384125 -1.711975,1.789169c-0.738495,0.405052 -1.535187,0.607582 -2.390015,0.607582c-0.926483,0 -1.754486,-0.223785 -2.484039,-0.671356c-0.729553,-0.447571 -1.282288,-1.05851 -1.658264,-1.832809c-0.375946,-0.7743 -0.563934,-1.593353 -0.563934,-2.457176zm1.342712,0.020142c0,1.186073 0.318909,2.120384 0.956696,2.802925c0.637787,0.682549 1.437836,1.023819 2.400116,1.023819c0.980164,0 1.786926,-0.344635 2.420227,-1.03389c0.633331,-0.689262 0.949982,-1.667206 0.949982,-2.933846c0,-0.801147 -0.135406,-1.500481 -0.406158,-2.098c-0.270813,-0.597496 -0.666901,-1.06073 -1.188324,-1.389709c-0.521423,-0.328957 -1.106628,-0.493439 -1.755585,-0.493446c-0.922028,0.000008 -1.715332,0.316666 -2.379974,0.949982c-0.664642,0.633316 -0.996979,1.690704 -0.996979,3.172165z"/>
     <path id="path10308" d="m-323.359528,94.427597l1.302002,0l0,5.686401c0,0.988998 -0.110992,1.775002 -0.334991,2.356003c-0.223999,0.582001 -0.627991,1.056 -1.212006,1.419998c-0.583984,0.364998 -1.350983,0.548004 -2.299011,0.548004c-0.921997,0 -1.676971,-0.159004 -2.26297,-0.477005c-0.586029,-0.318001 -1.005005,-0.778 -1.255005,-1.379997c-0.251007,-0.602005 -0.376007,-1.424004 -0.376007,-2.467003l0,-5.686401l1.302002,0l0,5.679405c0,0.854996 0.079987,1.485001 0.238007,1.889999c0.158997,0.404999 0.431976,0.716995 0.819977,0.936996c0.387024,0.219002 0.860016,0.329002 1.419006,0.329002c0.958008,0 1.640991,-0.217003 2.048004,-0.652c0.407013,-0.433998 0.610992,-1.267998 0.610992,-2.503998l0,-5.679405z"/>
     <path id="path10310" d="m-319.895508,104.269997l0,-9.8424l1.335999,0l5.169983,7.727402l0,-7.727402l1.248016,0l0,9.8424l-1.335999,0l-5.169006,-7.734299l0,7.734299l-1.248993,0z"/>
     <path id="path10312" d="m-309.945526,104.269997l0,-9.8424l3.390015,0c0.764984,0 1.350006,0.047005 1.751984,0.141006c0.563995,0.129799 1.045013,0.364799 1.444,0.704895c0.519012,0.438698 0.907013,0.999199 1.165009,1.681801c0.256989,0.682503 0.385986,1.462402 0.385986,2.339699c0,0.747002 -0.087982,1.410004 -0.261993,1.987c-0.174988,0.578003 -0.398987,1.055 -0.671997,1.434006c-0.27301,0.377998 -0.570984,0.674995 -0.895996,0.891998c-0.324005,0.217995 -0.716003,0.381996 -1.174988,0.493996c-0.458008,0.112 -0.985016,0.167999 -1.581024,0.167999l-3.550995,0zm1.302002,-1.161995l2.10202,0c0.648987,0 1.15799,-0.060005 1.526978,-0.181c0.369019,-0.121002 0.662994,-0.291 0.882996,-0.510002c0.309021,-0.308998 0.549011,-0.723999 0.721008,-1.246002c0.173004,-0.520996 0.259003,-1.153 0.259003,-1.896194c0,-1.029404 -0.169006,-1.820503 -0.506989,-2.373199c-0.338013,-0.552803 -0.749023,-0.923103 -1.232025,-1.111107c-0.348999,-0.1343 -0.91098,-0.201393 -1.684998,-0.201393l-2.067993,0l0,7.518898z"/>
    </g>
   </g>
  </g>
  <text fill="#003f7f" stroke="#000000" stroke-width="0" x="116.691406" y="584.92955" id="svg_1" font-size="26" font-family="Sans-serif" text-anchor="middle" xml:space="preserve">Hacktendo</text>
  <text fill="#003f7f" stroke="#000000" stroke-width="0" x="264.691406" y="584.92955" id="svg_2" font-size="34" font-family="Sans-serif" text-anchor="middle" xml:space="preserve" font-weight="bold" font-style="italic">DEVBOY</text>
 </g>
</svg>